<?xml version="1.0" standalone="no"?>
<!DOCTYPE svg PUBLIC "-//W3C//DTD SVG 20010904//EN"
 "http://www.w3.org/TR/2001/REC-SVG-20010904/DTD/svg10.dtd">
<svg version="1.0" xmlns="http://www.w3.org/2000/svg"
 width="1024.000000pt" height="1648.000000pt" viewBox="0 0 1024.000000 1648.000000"
 preserveAspectRatio="xMidYMid meet">
<metadata>
Created by potrace 1.15, written by Peter Selinger 2001-2017
</metadata>
<g transform="translate(0.000000,1648.000000) scale(0.100000,-0.100000)"
fill="#000000" stroke="none">
<path d="M2620 16219 c-195 -10 -322 -24 -351 -39 -19 -11 -20 -18 -17 -141
l3 -129 -926 -2 -925 -3 -36 -24 c-19 -13 -46 -40 -59 -59 l-24 -36 -3 -7120
-2 -7120 20 -42 c12 -24 38 -54 62 -70 l41 -29 4456 0 4456 0 36 24 c20 14 47
41 60 60 l24 35 3 7105 c1 3908 0 7121 -3 7139 -8 42 -59 100 -110 123 -38 17
-86 19 -780 19 l-740 0 0 132 0 133 -35 11 c-107 35 -262 38 -2645 40 -1287 1
-2414 -2 -2505 -7z m6510 -2444 l0 -1025 -2067 0 -2068 1 -331 782 c-201 475
-336 783 -345 784 -8 2 -444 -350 -969 -782 l-955 -784 -917 0 -918 -1 0 1025
0 1025 4285 0 4285 0 0 -1025z m-4817 463 c2 -7 301 -710 662 -1563 362 -852
660 -1559 662 -1570 4 -17 -45 -69 -226 -244 -127 -123 -231 -228 -231 -233 0
-6 363 -598 806 -1316 444 -719 807 -1311 808 -1318 1 -6 -114 -108 -254 -228
-140 -119 -259 -222 -264 -229 -5 -8 345 -776 1019 -2232 566 -1221 1043
-2254 1062 -2295 l34 -75 -143 141 c-79 78 -804 793 -1613 1589 -808 796
-1529 1507 -1602 1579 l-132 131 300 279 c164 153 299 284 299 290 0 6 -488
499 -1084 1096 l-1085 1085 370 339 c203 186 369 344 369 350 0 6 -535 526
-1189 1155 l-1189 1144 1252 1025 c688 564 1274 1044 1301 1068 55 47 61 50
68 32z m-2143 -1669 c-14 -12 -141 -116 -282 -232 -142 -116 -258 -216 -258
-222 0 -6 364 -361 810 -790 445 -428 810 -780 810 -782 0 -2 -607 -3 -1350
-3 l-1350 0 0 1025 0 1025 823 0 822 -1 -25 -20z m6950 -1004 l0 -1025 -1917
0 -1918 0 -24 42 -24 42 232 224 c127 123 231 228 231 233 0 5 -142 344 -315
753 -173 408 -315 746 -315 750 0 3 911 6 2025 6 l2025 0 0 -1025z m-5483
-1392 c107 -104 235 -226 284 -273 l90 -85 -371 -339 c-203 -187 -370 -345
-370 -350 0 -6 181 -192 402 -413 l403 -403 -1758 0 -1757 0 0 1025 0 1025
1441 0 1442 0 194 -187z m5493 -838 l0 -1025 -1233 0 -1233 0 -609 987 c-336
543 -620 1004 -633 1025 l-23 38 1865 0 1866 0 0 -1025z m-4283 -1797 l593
-593 -300 -279 c-165 -154 -300 -285 -300 -290 0 -6 64 -75 142 -153 l143
-143 -2278 0 -2277 0 0 1025 0 1025 1843 0 1842 0 592 -592z m4293 -433 l0
-1025 -1075 2 -1076 3 -329 712 c-182 392 -330 716 -329 720 0 4 119 109 265
232 145 123 264 229 264 235 0 6 -18 39 -40 74 -22 34 -40 65 -40 67 0 3 531
5 1180 5 l1180 0 0 -1025z m-3151 -1872 c383 -378 849 -839 1036 -1025 l340
-338 -3397 0 -3398 0 0 1025 0 1025 2361 0 2362 0 696 -687z m3151 -338 l0
-1025 -563 0 -563 0 -468 1011 c-257 556 -470 1018 -473 1025 -4 12 156 14
1031 14 l1036 0 0 -1025z m-1139 -1647 c252 -249 466 -454 474 -456 8 -2 18 3
21 11 3 8 -83 205 -191 438 -108 233 -199 432 -202 442 -5 16 24 17 516 17
l521 0 0 -1025 0 -1025 -4285 0 -4285 0 0 1025 0 1025 3486 0 3486 0 459 -452z"/>
</g>
</svg>
