<svg id="svg" xmlns="http://www.w3.org/2000/svg" xmlns:xlink="http://www.w3.org/1999/xlink" width="400" height="401.1887072808321" viewBox="0, 0, 400,401.1887072808321"><g id="svgg"><path id="path0" d="M173.700 5.482 L 172.800 5.656 172.800 32.678 L 172.800 59.700 174.050 59.450 C 174.737 59.313,187.067 59.200,201.450 59.200 L 227.600 59.200 227.600 32.200 L 227.600 5.200 201.100 5.254 C 186.525 5.284,174.195 5.387,173.700 5.482 M230.400 32.200 L 230.400 59.200 256.800 59.200 L 283.200 59.200 283.200 32.200 L 283.200 5.200 256.800 5.200 L 230.400 5.200 230.400 32.200 M286.000 32.200 L 286.000 59.200 313.200 59.200 L 340.400 59.200 340.400 32.200 L 340.400 5.200 313.200 5.200 L 286.000 5.200 286.000 32.200 M343.200 32.200 L 343.200 59.200 368.800 59.200 L 394.400 59.200 394.400 32.200 L 394.400 5.200 368.800 5.200 L 343.200 5.200 343.200 32.200 M167.000 6.400 C 166.839 6.660,157.863 6.800,141.376 6.800 L 116.000 6.800 116.000 33.000 L 116.000 59.200 142.800 59.200 L 169.600 59.200 169.600 32.600 L 169.600 6.000 168.424 6.000 C 167.777 6.000,167.136 6.180,167.000 6.400 M5.600 33.000 L 5.600 59.200 31.600 59.200 L 57.600 59.200 57.600 33.000 L 57.600 6.800 31.600 6.800 L 5.600 6.800 5.600 33.000 M60.400 33.000 L 60.400 59.200 86.800 59.200 L 113.200 59.200 113.200 33.000 L 113.200 6.800 86.800 6.800 L 60.400 6.800 60.400 33.000 M5.600 88.400 L 5.600 114.800 31.600 114.800 L 57.600 114.800 57.600 88.400 L 57.600 62.000 31.600 62.000 L 5.600 62.000 5.600 88.400 M60.400 88.400 L 60.400 114.800 86.800 114.800 L 113.200 114.800 113.200 88.400 L 113.200 62.000 86.800 62.000 L 60.400 62.000 60.400 88.400 M116.000 88.400 L 116.000 114.800 142.400 114.800 L 168.800 114.800 168.800 88.400 L 168.800 62.000 142.400 62.000 L 116.000 62.000 116.000 88.400 M174.400 86.800 L 174.400 111.600 201.000 111.600 L 227.600 111.600 227.600 86.800 L 227.600 62.000 201.000 62.000 L 174.400 62.000 174.400 86.800 M230.400 86.800 L 230.400 111.600 256.800 111.600 L 283.200 111.600 283.200 86.800 L 283.200 62.000 256.800 62.000 L 230.400 62.000 230.400 86.800 M286.000 86.800 L 286.000 111.600 313.200 111.600 L 340.400 111.600 340.400 86.800 L 340.400 62.000 313.200 62.000 L 286.000 62.000 286.000 86.800 M343.200 86.800 L 343.200 111.600 368.800 111.600 L 394.400 111.600 394.400 86.800 L 394.400 62.000 368.800 62.000 L 343.200 62.000 343.200 86.800 M168.200 117.600 C 168.039 117.860,158.863 118.000,141.976 118.000 L 116.000 118.000 116.000 145.000 L 116.000 172.000 171.800 172.000 L 227.600 172.000 227.600 145.000 L 227.600 118.000 200.424 118.000 C 182.737 118.000,173.161 117.860,173.000 117.600 C 172.864 117.380,171.784 117.200,170.600 117.200 C 169.416 117.200,168.336 117.380,168.200 117.600 M5.600 145.000 L 5.600 172.000 31.600 172.000 L 57.600 172.000 57.600 145.000 L 57.600 118.000 31.600 118.000 L 5.600 118.000 5.600 145.000 M60.400 145.000 L 60.400 172.000 86.800 172.000 L 113.200 172.000 113.200 145.000 L 113.200 118.000 86.800 118.000 L 60.400 118.000 60.400 145.000 M230.400 145.000 L 230.400 172.000 256.800 172.000 L 283.200 172.000 283.200 145.000 L 283.200 118.000 256.800 118.000 L 230.400 118.000 230.400 145.000 M286.000 145.000 L 286.000 172.000 313.200 172.000 L 340.400 172.000 340.400 145.000 L 340.400 118.000 313.200 118.000 L 286.000 118.000 286.000 145.000 M343.200 145.000 L 343.200 172.000 370.200 172.000 L 397.200 172.000 397.200 145.000 L 397.200 118.000 370.200 118.000 L 343.200 118.000 343.200 145.000 M5.600 200.800 L 5.600 226.800 31.600 226.800 L 57.600 226.800 57.600 200.800 L 57.600 174.800 31.600 174.800 L 5.600 174.800 5.600 200.800 M60.400 200.800 L 60.400 226.800 86.800 226.800 L 113.200 226.800 113.200 200.800 L 113.200 174.800 86.800 174.800 L 60.400 174.800 60.400 200.800 M116.000 200.800 C 116.000 218.833,116.130 226.800,116.424 226.800 C 116.657 226.800,116.736 226.980,116.600 227.200 C 116.436 227.465,125.196 227.600,142.576 227.600 L 168.800 227.600 168.800 201.200 L 168.800 174.800 142.400 174.800 L 116.000 174.800 116.000 200.800 M173.200 201.353 L 173.200 227.907 174.100 228.148 C 174.595 228.281,186.835 228.392,201.300 228.395 L 227.600 228.400 227.600 201.600 L 227.600 174.800 200.400 174.800 L 173.200 174.800 173.200 201.353 M230.400 201.600 L 230.400 228.400 256.800 228.400 L 283.200 228.400 283.200 201.600 L 283.200 174.800 256.800 174.800 L 230.400 174.800 230.400 201.600 M286.000 201.600 L 286.000 228.400 313.200 228.400 L 340.400 228.400 340.400 201.600 L 340.400 174.800 313.200 174.800 L 286.000 174.800 286.000 201.600 M343.200 201.600 L 343.200 228.400 370.200 228.400 L 397.200 228.400 397.200 201.600 L 397.200 174.800 370.200 174.800 L 343.200 174.800 343.200 201.600 M116.000 258.000 L 116.000 285.200 143.000 285.200 L 170.000 285.200 170.000 259.080 C 170.000 239.024,169.884 232.710,169.500 231.883 L 169.000 230.806 142.500 230.803 L 116.000 230.800 116.000 258.000 M174.400 258.200 L 174.400 285.200 201.000 285.200 L 227.600 285.200 227.600 258.200 L 227.600 231.200 201.000 231.200 L 174.400 231.200 174.400 258.200 M230.400 258.200 L 230.400 285.200 256.800 285.200 L 283.200 285.200 283.200 258.200 L 283.200 231.200 256.800 231.200 L 230.400 231.200 230.400 258.200 M286.000 258.200 L 286.000 285.200 313.200 285.200 L 340.400 285.200 340.400 258.200 L 340.400 231.200 313.200 231.200 L 286.000 231.200 286.000 258.200 M343.200 258.200 L 343.200 285.200 370.200 285.200 L 397.200 285.200 397.200 258.200 L 397.200 231.200 370.200 231.200 L 343.200 231.200 343.200 258.200 M4.400 258.800 L 4.400 285.200 31.000 285.200 L 57.600 285.200 57.600 258.800 L 57.600 232.400 31.000 232.400 L 4.400 232.400 4.400 258.800 M60.400 258.800 L 60.400 285.200 86.800 285.200 L 113.200 285.200 113.200 258.800 L 113.200 232.400 86.800 232.400 L 60.400 232.400 60.400 258.800 M169.400 288.000 C 169.239 288.260,159.863 288.400,142.576 288.400 L 116.000 288.400 116.000 314.800 L 116.000 341.200 142.976 341.200 C 160.529 341.200,170.039 341.340,170.200 341.600 C 170.336 341.820,171.326 342.000,172.400 342.000 C 173.474 342.000,174.464 341.820,174.600 341.600 C 174.761 341.340,184.071 341.200,201.224 341.200 L 227.600 341.200 227.600 314.800 L 227.600 288.400 201.024 288.400 C 183.737 288.400,174.361 288.260,174.200 288.000 C 174.064 287.780,172.984 287.600,171.800 287.600 C 170.616 287.600,169.536 287.780,169.400 288.000 M4.400 314.800 L 4.400 341.200 31.000 341.200 L 57.600 341.200 57.600 314.800 L 57.600 288.400 31.000 288.400 L 4.400 288.400 4.400 314.800 M60.400 314.800 L 60.400 341.200 86.800 341.200 L 113.200 341.200 113.200 314.800 L 113.200 288.400 86.800 288.400 L 60.400 288.400 60.400 314.800 M230.400 314.800 L 230.400 341.200 256.800 341.200 L 283.200 341.200 283.200 314.800 L 283.200 288.400 256.800 288.400 L 230.400 288.400 230.400 314.800 M286.000 314.800 L 286.000 341.200 313.200 341.200 L 340.400 341.200 340.400 314.800 L 340.400 288.400 313.200 288.400 L 286.000 288.400 286.000 314.800 M343.200 314.800 L 343.200 341.200 370.200 341.200 L 397.200 341.200 397.200 314.800 L 397.200 288.400 370.200 288.400 L 343.200 288.400 343.200 314.800 M4.400 369.600 L 4.400 395.200 31.000 395.200 L 57.600 395.200 57.600 369.600 L 57.600 344.000 31.000 344.000 L 4.400 344.000 4.400 369.600 M60.400 369.600 L 60.400 395.200 86.800 395.200 L 113.200 395.200 113.200 369.600 L 113.200 344.000 86.800 344.000 L 60.400 344.000 60.400 369.600 M116.000 369.600 L 116.000 395.200 143.000 395.200 L 170.000 395.200 170.000 369.600 L 170.000 344.000 143.000 344.000 L 116.000 344.000 116.000 369.600 M174.400 371.200 L 174.400 398.400 201.000 398.400 L 227.600 398.400 227.600 371.200 L 227.600 344.000 201.000 344.000 L 174.400 344.000 174.400 371.200 M230.400 371.200 L 230.400 398.400 256.800 398.400 L 283.200 398.400 283.200 371.200 L 283.200 344.000 256.800 344.000 L 230.400 344.000 230.400 371.200 M286.000 371.200 L 286.000 398.400 313.200 398.400 L 340.400 398.400 340.400 371.200 L 340.400 344.000 313.200 344.000 L 286.000 344.000 286.000 371.200 M343.200 371.200 L 343.200 398.400 370.200 398.400 L 397.200 398.400 397.200 371.200 L 397.200 344.000 370.200 344.000 L 343.200 344.000 343.200 371.200 " stroke="none" fill="#fcfcfc" fill-rule="evenodd"></path><path id="path1" d="M169.600 1.000 L 169.600 2.000 85.000 2.000 L 0.400 2.000 0.400 115.000 C 0.400 190.067,0.534 228.000,0.800 228.000 C 1.020 228.000,1.200 228.656,1.200 229.458 L 1.200 230.917 86.997 230.758 L 172.794 230.600 172.897 202.600 L 173.000 174.600 200.200 174.600 L 227.400 174.600 227.503 201.700 L 227.606 228.800 200.803 228.800 L 174.000 228.800 174.000 229.797 L 174.000 230.794 200.700 230.897 L 227.400 231.000 227.503 258.297 L 227.606 285.594 200.903 285.697 L 174.200 285.800 174.200 286.800 L 174.200 287.800 200.900 287.903 L 227.600 288.006 227.600 314.803 L 227.600 341.600 201.280 341.600 C 181.342 341.600,174.844 341.716,174.480 342.080 C 172.977 343.583,173.096 343.591,200.700 343.697 L 227.400 343.800 227.503 371.100 L 227.606 398.400 200.990 398.400 C 177.701 398.400,174.346 398.475,174.145 399.000 C 173.941 399.531,163.906 399.600,87.157 399.600 C 10.306 399.600,0.400 399.669,0.400 400.200 C 0.400 400.733,22.867 400.800,200.200 400.800 L 400.000 400.800 400.000 201.400 C 400.000 68.733,399.866 2.000,399.600 2.000 C 399.380 2.000,399.200 1.550,399.200 1.000 L 399.200 0.000 284.400 0.000 L 169.600 0.000 169.600 1.000 M227.600 32.013 C 227.600 53.420,227.493 59.263,227.100 59.405 C 226.825 59.503,214.405 59.633,199.500 59.692 L 172.400 59.800 172.400 32.528 L 172.400 5.256 173.300 5.082 C 173.795 4.987,186.215 4.884,200.900 4.854 L 227.600 4.800 227.600 32.013 M283.503 32.100 L 283.400 59.400 256.800 59.400 L 230.200 59.400 230.097 32.100 L 229.994 4.800 256.800 4.800 L 283.606 4.800 283.503 32.100 M340.600 32.200 L 340.600 59.400 313.300 59.503 L 286.000 59.606 286.000 32.200 L 286.000 4.794 313.300 4.897 L 340.600 5.000 340.600 32.200 M394.703 32.100 L 394.600 59.400 368.800 59.400 L 343.000 59.400 342.897 32.100 L 342.794 4.800 368.800 4.800 L 394.806 4.800 394.703 32.100 M170.000 32.800 L 170.000 59.600 143.000 59.600 L 116.000 59.600 116.000 33.003 L 116.000 6.406 141.500 6.300 C 155.525 6.242,167.675 6.150,168.500 6.097 L 170.000 6.000 170.000 32.800 M57.503 32.900 L 57.400 59.400 31.400 59.400 L 5.400 59.400 5.297 32.900 L 5.194 6.400 31.400 6.400 L 57.606 6.400 57.503 32.900 M113.503 32.900 L 113.400 59.400 86.800 59.400 L 60.200 59.400 60.097 32.900 L 59.994 6.400 86.800 6.400 L 113.606 6.400 113.503 32.900 M57.600 88.400 L 57.600 115.200 31.400 115.200 L 5.200 115.200 5.200 88.667 C 5.200 74.073,5.320 62.013,5.467 61.867 C 5.613 61.720,17.403 61.600,31.667 61.600 L 57.600 61.600 57.600 88.400 M113.503 88.500 L 113.606 115.200 86.803 115.200 L 60.000 115.200 60.000 88.667 C 60.000 74.073,60.121 62.012,60.269 61.864 C 60.418 61.716,72.433 61.641,86.969 61.697 L 113.400 61.800 113.503 88.500 M168.800 88.400 L 168.800 115.200 142.400 115.200 L 116.000 115.200 116.000 88.400 L 116.000 61.600 142.400 61.600 L 168.800 61.600 168.800 88.400 M227.600 86.803 L 227.600 112.006 200.900 111.903 L 174.200 111.800 174.097 86.700 L 173.994 61.600 200.797 61.600 L 227.600 61.600 227.600 86.803 M283.400 86.800 L 283.400 111.800 256.800 111.800 L 230.200 111.800 230.096 87.200 C 230.039 73.670,230.079 62.374,230.185 62.097 C 230.337 61.699,235.892 61.616,256.889 61.697 L 283.400 61.800 283.400 86.800 M340.600 86.800 L 340.600 111.800 313.300 111.903 L 286.000 112.006 286.000 86.800 L 286.000 61.594 313.300 61.697 L 340.600 61.800 340.600 86.800 M394.800 86.803 L 394.800 112.006 368.900 111.903 L 343.000 111.800 342.896 87.200 C 342.839 73.670,342.879 62.375,342.984 62.100 C 343.134 61.707,348.706 61.600,368.987 61.600 L 394.800 61.600 394.800 86.803 M173.000 117.200 C 173.161 117.460,182.738 117.600,200.426 117.600 L 227.606 117.600 227.503 144.900 L 227.400 172.200 171.700 172.301 L 116.000 172.403 116.000 145.001 L 116.000 117.600 141.976 117.600 C 158.863 117.600,168.039 117.460,168.200 117.200 C 168.336 116.980,169.416 116.800,170.600 116.800 C 171.784 116.800,172.864 116.980,173.000 117.200 M57.503 144.900 L 57.400 172.200 31.400 172.200 L 5.400 172.200 5.297 144.900 L 5.194 117.600 31.400 117.600 L 57.606 117.600 57.503 144.900 M113.503 144.900 L 113.400 172.200 86.800 172.200 L 60.200 172.200 60.097 144.900 L 59.994 117.600 86.800 117.600 L 113.606 117.600 113.503 144.900 M283.503 144.900 L 283.400 172.200 256.800 172.200 L 230.200 172.200 230.097 144.900 L 229.994 117.600 256.800 117.600 L 283.606 117.600 283.503 144.900 M340.600 145.000 L 340.600 172.200 313.300 172.303 L 286.000 172.406 286.000 145.000 L 286.000 117.594 313.300 117.697 L 340.600 117.800 340.600 145.000 M397.503 144.900 L 397.400 172.200 370.200 172.200 L 343.000 172.200 342.897 144.900 L 342.794 117.600 370.200 117.600 L 397.606 117.600 397.503 144.900 M57.503 200.700 L 57.606 226.800 31.403 226.800 L 5.200 226.800 5.200 200.867 C 5.200 186.603,5.321 174.812,5.470 174.664 C 5.618 174.516,17.363 174.441,31.570 174.497 L 57.400 174.600 57.503 200.700 M113.503 200.700 L 113.606 226.800 86.803 226.800 L 60.000 226.800 60.000 200.867 C 60.000 186.603,60.121 174.812,60.269 174.664 C 60.418 174.516,72.433 174.441,86.969 174.497 L 113.400 174.600 113.503 200.700 M168.703 200.763 C 168.776 219.278,168.936 227.082,169.252 227.463 C 169.625 227.912,165.283 228.000,142.860 228.000 L 116.022 228.000 116.006 201.197 L 115.990 174.394 142.295 174.497 L 168.600 174.600 168.703 200.763 M283.400 201.600 L 283.400 228.600 256.800 228.600 L 230.200 228.600 230.096 202.000 C 230.039 187.370,230.079 175.174,230.185 174.897 C 230.337 174.499,235.892 174.416,256.889 174.497 L 283.400 174.600 283.400 201.600 M340.600 201.600 L 340.600 228.600 313.300 228.703 L 286.000 228.806 286.000 201.600 L 286.000 174.394 313.300 174.497 L 340.600 174.600 340.600 201.600 M397.503 201.703 L 397.606 228.806 370.303 228.703 L 343.000 228.600 342.896 202.000 C 342.839 187.370,342.879 175.174,342.985 174.897 C 343.137 174.499,348.812 174.416,370.289 174.497 L 397.400 174.600 397.503 201.703 M283.503 258.300 L 283.606 285.600 256.803 285.600 L 230.000 285.600 230.000 258.467 C 230.000 243.543,230.121 231.212,230.269 231.064 C 230.418 230.916,242.433 230.841,256.969 230.897 L 283.400 231.000 283.503 258.300 M340.600 258.200 L 340.600 285.400 313.300 285.503 L 286.000 285.606 286.000 258.200 L 286.000 230.794 313.300 230.897 L 340.600 231.000 340.600 258.200 M397.503 258.300 L 397.606 285.600 370.203 285.600 L 342.800 285.600 342.800 258.467 C 342.800 243.543,342.921 231.212,343.069 231.064 C 343.218 230.916,355.503 230.841,370.369 230.897 L 397.400 231.000 397.503 258.300 M57.884 232.250 C 57.728 232.406,57.600 244.472,57.600 259.064 L 57.600 285.594 30.900 285.697 L 4.200 285.800 4.200 286.800 L 4.200 287.800 30.900 287.903 L 57.600 288.006 57.600 314.803 L 57.600 341.600 30.800 341.600 L 4.000 341.600 4.000 342.597 L 4.000 343.594 30.700 343.697 L 57.400 343.800 57.600 369.600 L 57.800 395.400 58.897 395.526 L 59.994 395.653 60.097 369.726 L 60.200 343.800 86.800 343.800 L 113.400 343.800 113.503 369.726 L 113.606 395.653 114.703 395.526 L 115.800 395.400 115.903 369.494 L 116.006 343.589 143.003 343.694 L 170.000 343.800 170.000 342.700 L 170.000 341.600 143.000 341.600 L 116.000 341.600 116.000 314.800 L 116.000 288.000 142.520 288.000 C 170.197 288.000,170.000 288.012,170.000 286.320 C 170.000 285.634,168.733 285.600,143.003 285.600 L 116.006 285.600 115.903 258.900 L 115.800 232.200 114.800 232.200 L 113.800 232.200 113.697 258.900 L 113.594 285.600 86.800 285.600 L 60.006 285.600 59.903 258.900 C 59.801 232.364,59.795 232.199,58.984 232.083 C 58.534 232.019,58.039 232.094,57.884 232.250 M113.503 314.700 L 113.400 341.400 86.800 341.400 L 60.200 341.400 60.097 314.700 L 59.994 288.000 86.800 288.000 L 113.606 288.000 113.503 314.700 M283.503 314.700 L 283.400 341.400 256.800 341.400 L 230.200 341.400 230.097 314.700 L 229.994 288.000 256.800 288.000 L 283.606 288.000 283.503 314.700 M340.600 314.800 L 340.600 341.400 313.300 341.503 L 286.000 341.606 286.000 314.800 L 286.000 287.994 313.300 288.097 L 340.600 288.200 340.600 314.800 M397.600 314.803 L 397.600 341.606 370.300 341.503 L 343.000 341.400 342.896 315.200 C 342.839 300.790,342.879 288.775,342.984 288.500 C 343.134 288.107,348.986 288.000,370.387 288.000 L 397.600 288.000 397.600 314.803 M283.503 371.100 L 283.606 398.400 256.803 398.400 L 230.000 398.400 230.000 371.267 C 230.000 356.343,230.121 344.012,230.269 343.864 C 230.418 343.716,242.433 343.641,256.969 343.697 L 283.400 343.800 283.503 371.100 M340.600 371.000 L 340.600 398.200 313.300 398.303 L 286.000 398.406 286.000 371.000 L 286.000 343.594 313.300 343.697 L 340.600 343.800 340.600 371.000 M397.503 371.100 L 397.606 398.400 370.203 398.400 L 342.800 398.400 342.800 371.267 C 342.800 356.343,342.921 344.012,343.069 343.864 C 343.218 343.716,355.503 343.641,370.369 343.697 L 397.400 343.800 397.503 371.100 " stroke="none" fill="#0e2129" fill-rule="evenodd"></path><path id="path2" d="M-0.000 313.713 L -0.000 399.800 87.000 399.698 C 134.850 399.642,174.000 399.462,174.001 399.298 C 174.001 399.134,174.046 386.175,174.101 370.500 L 174.200 342.000 172.100 342.000 L 170.000 342.000 170.000 368.799 L 170.000 395.598 87.100 395.499 L 4.200 395.400 4.200 313.800 L 4.200 232.200 60.100 232.200 C 113.071 232.200,116.000 232.163,116.000 231.500 C 116.000 230.837,113.000 230.800,58.600 230.800 L 1.200 230.800 1.200 229.443 C 1.200 228.605,0.970 227.997,0.600 227.855 C 0.068 227.651,-0.000 237.355,-0.000 313.713 M172.800 229.371 C 172.800 230.779,172.775 230.800,171.150 230.800 C 169.515 230.800,169.502 230.812,169.750 232.050 C 169.888 232.738,170.000 245.428,170.000 260.250 L 170.000 287.200 172.000 287.200 C 173.333 287.200,174.000 287.033,174.001 286.700 C 174.077 233.268,174.026 228.199,173.416 228.071 C 172.952 227.973,172.800 228.294,172.800 229.371 " stroke="none" fill="#fc0404" fill-rule="evenodd"></path><path id="path3" d="" stroke="none" fill="#bcbc100" fill-rule="evenodd"></path><path id="path4" d="" stroke="none" fill="#bcbc100" fill-rule="evenodd"></path></g></svg>